<mxfile host="app.diagrams.net" agent="Mozilla/5.0 (Windows NT 10.0; Win64; x64) AppleWebKit/537.36 (KHTML, like Gecko) Chrome/137.0.0.0 Safari/537.36 Edg/137.0.0.0" version="27.1.5">
  <diagram name="Страница — 1" id="1Pty1IVwLFPDANVCiap-">
    <mxGraphModel dx="1216" dy="671" grid="1" gridSize="10" guides="1" tooltips="1" connect="1" arrows="1" fold="1" page="1" pageScale="1" pageWidth="1920" pageHeight="1200" math="0" shadow="0">
      <root>
        <mxCell id="0" />
        <mxCell id="1" parent="0" />
        <mxCell id="kPqUrS7yO-hXkmZvU42--7" value="&lt;div&gt;formData&lt;/div&gt;" style="edgeStyle=orthogonalEdgeStyle;rounded=0;orthogonalLoop=1;jettySize=auto;html=1;entryX=0;entryY=0.75;entryDx=0;entryDy=0;align=left;exitX=1;exitY=0.75;exitDx=0;exitDy=0;" edge="1" parent="1" source="UMNibgqyA80OrGvs6mDP-1" target="kPqUrS7yO-hXkmZvU42--1">
          <mxGeometry relative="1" as="geometry" />
        </mxCell>
        <mxCell id="UMNibgqyA80OrGvs6mDP-1" value="&lt;div&gt;fetch(“/upload_csv”, {&lt;/div&gt;&lt;div&gt;&amp;nbsp;method: “POST”&lt;/div&gt;&lt;div&gt;&amp;nbsp;body: formData&lt;/div&gt;&lt;div&gt;});&lt;/div&gt;" style="rounded=0;html=1;align=left;whiteSpace=wrap;" parent="1" vertex="1">
          <mxGeometry x="130" y="130" width="150" height="60" as="geometry" />
        </mxCell>
        <mxCell id="kPqUrS7yO-hXkmZvU42--8" value="&lt;div&gt;formData&lt;/div&gt;" style="edgeStyle=orthogonalEdgeStyle;rounded=0;orthogonalLoop=1;jettySize=auto;html=1;entryX=0.25;entryY=0;entryDx=0;entryDy=0;exitX=0.25;exitY=1;exitDx=0;exitDy=0;align=left;" edge="1" parent="1" source="kPqUrS7yO-hXkmZvU42--1" target="kPqUrS7yO-hXkmZvU42--2">
          <mxGeometry relative="1" as="geometry" />
        </mxCell>
        <mxCell id="kPqUrS7yO-hXkmZvU42--16" value="&lt;div&gt;Respond&lt;/div&gt;" style="edgeStyle=orthogonalEdgeStyle;rounded=0;orthogonalLoop=1;jettySize=auto;html=1;exitX=0;exitY=0.25;exitDx=0;exitDy=0;entryX=1;entryY=0.25;entryDx=0;entryDy=0;align=left;" edge="1" parent="1" source="kPqUrS7yO-hXkmZvU42--1" target="UMNibgqyA80OrGvs6mDP-1">
          <mxGeometry relative="1" as="geometry" />
        </mxCell>
        <mxCell id="kPqUrS7yO-hXkmZvU42--1" value="&lt;div&gt;@router.post(“/upload_csv”)&lt;/div&gt;" style="rounded=0;html=1;align=left;whiteSpace=wrap;" vertex="1" parent="1">
          <mxGeometry x="430" y="130" width="150" height="60" as="geometry" />
        </mxCell>
        <mxCell id="kPqUrS7yO-hXkmZvU42--9" value="&lt;div&gt;df&lt;/div&gt;" style="edgeStyle=orthogonalEdgeStyle;rounded=0;orthogonalLoop=1;jettySize=auto;html=1;exitX=1;exitY=0.75;exitDx=0;exitDy=0;entryX=0;entryY=0.75;entryDx=0;entryDy=0;align=left;" edge="1" parent="1" source="kPqUrS7yO-hXkmZvU42--2" target="kPqUrS7yO-hXkmZvU42--3">
          <mxGeometry relative="1" as="geometry" />
        </mxCell>
        <mxCell id="kPqUrS7yO-hXkmZvU42--10" value="&lt;div&gt;df&lt;/div&gt;&lt;div&gt;df_baseline=df.copy()&lt;/div&gt;" style="edgeStyle=orthogonalEdgeStyle;rounded=0;orthogonalLoop=1;jettySize=auto;html=1;exitX=0.75;exitY=1;exitDx=0;exitDy=0;entryX=0;entryY=0.5;entryDx=0;entryDy=0;align=left;" edge="1" parent="1" source="kPqUrS7yO-hXkmZvU42--2" target="kPqUrS7yO-hXkmZvU42--4">
          <mxGeometry relative="1" as="geometry" />
        </mxCell>
        <mxCell id="kPqUrS7yO-hXkmZvU42--13" value="&lt;div&gt;“filtered_factors”: filtered&lt;/div&gt;&lt;div&gt;“baseline_facors”: baseline&lt;/div&gt;&lt;div&gt;“filters”: all_filters = unique_values&lt;/div&gt;" style="edgeStyle=orthogonalEdgeStyle;rounded=0;orthogonalLoop=1;jettySize=auto;html=1;exitX=0.75;exitY=0;exitDx=0;exitDy=0;entryX=0.75;entryY=1;entryDx=0;entryDy=0;align=left;" edge="1" parent="1" source="kPqUrS7yO-hXkmZvU42--2" target="kPqUrS7yO-hXkmZvU42--1">
          <mxGeometry x="0.0053" relative="1" as="geometry">
            <mxPoint as="offset" />
          </mxGeometry>
        </mxCell>
        <mxCell id="kPqUrS7yO-hXkmZvU42--2" value="&lt;div&gt;async def upload_csv(file: UploadFile = File(…)):&lt;/div&gt;" style="rounded=0;html=1;align=left;whiteSpace=wrap;" vertex="1" parent="1">
          <mxGeometry x="430" y="300" width="150" height="60" as="geometry" />
        </mxCell>
        <mxCell id="kPqUrS7yO-hXkmZvU42--14" value="&lt;div&gt;unique_values&lt;/div&gt;" style="edgeStyle=orthogonalEdgeStyle;rounded=0;orthogonalLoop=1;jettySize=auto;html=1;exitX=0;exitY=0.25;exitDx=0;exitDy=0;entryX=1;entryY=0.25;entryDx=0;entryDy=0;align=left;" edge="1" parent="1" source="kPqUrS7yO-hXkmZvU42--3" target="kPqUrS7yO-hXkmZvU42--2">
          <mxGeometry relative="1" as="geometry" />
        </mxCell>
        <mxCell id="kPqUrS7yO-hXkmZvU42--3" value="&lt;div&gt;def unique_values():&lt;/div&gt;" style="rounded=0;html=1;align=left;whiteSpace=wrap;" vertex="1" parent="1">
          <mxGeometry x="770" y="300" width="150" height="60" as="geometry" />
        </mxCell>
        <mxCell id="kPqUrS7yO-hXkmZvU42--11" value="&lt;div&gt;df, combined_cols = def on df&lt;/div&gt;&lt;div&gt;df_baseline, combined_cols = def on df_baseline&lt;/div&gt;" style="edgeStyle=orthogonalEdgeStyle;rounded=0;orthogonalLoop=1;jettySize=auto;html=1;exitX=1;exitY=0.5;exitDx=0;exitDy=0;entryX=1;entryY=0.5;entryDx=0;entryDy=0;align=left;" edge="1" parent="1" source="kPqUrS7yO-hXkmZvU42--4" target="kPqUrS7yO-hXkmZvU42--5">
          <mxGeometry relative="1" as="geometry">
            <Array as="points">
              <mxPoint x="970" y="460" />
              <mxPoint x="970" y="590" />
            </Array>
          </mxGeometry>
        </mxCell>
        <mxCell id="kPqUrS7yO-hXkmZvU42--4" value="&lt;div&gt;def decompose():&lt;/div&gt;" style="rounded=0;html=1;align=left;whiteSpace=wrap;" vertex="1" parent="1">
          <mxGeometry x="770" y="430" width="150" height="60" as="geometry" />
        </mxCell>
        <mxCell id="kPqUrS7yO-hXkmZvU42--12" value="&lt;div&gt;filtered = def on df, combined_cols&lt;/div&gt;&lt;div&gt;baseline = def on df_baseline, combined_cols&lt;/div&gt;" style="edgeStyle=orthogonalEdgeStyle;rounded=0;orthogonalLoop=1;jettySize=auto;html=1;entryX=0.25;entryY=1;entryDx=0;entryDy=0;align=left;" edge="1" parent="1" source="kPqUrS7yO-hXkmZvU42--5" target="kPqUrS7yO-hXkmZvU42--2">
          <mxGeometry relative="1" as="geometry" />
        </mxCell>
        <mxCell id="kPqUrS7yO-hXkmZvU42--5" value="&lt;div&gt;def calculate_scaling_factors():&lt;/div&gt;" style="rounded=0;html=1;align=left;whiteSpace=wrap;" vertex="1" parent="1">
          <mxGeometry x="770" y="560" width="150" height="60" as="geometry" />
        </mxCell>
      </root>
    </mxGraphModel>
  </diagram>
</mxfile>
